PathFileType	4	(X/Y/Z)	C:\Users\WrightLab\Desktop\Jo\P4V110.trc
DataRate	CameraRate	NumFrames	NumMarkers	Units	OrigDataRate	OrigDataStartFrame	OrigNumFrames
100.00	100.00	       7	19	mm	100.00	317	       633
Frame#	Time	Headset_Front			Headset_Back			Headset_Left			Headset_Right			Left_Shoulder			Right_Shoulder			Sternum			C7			Left Elbow			Right Elbow			Left Wrist			Right Wrist			Left ASIS			Right ASIS			S2			Left Knee			Right Knee			Left Ankle			Right Ankle			
		X1	Y1	Z1	X2	Y2	Z2	X3	Y3	Z3	X4	Y4	Z4	X5	Y5	Z5	X6	Y6	Z6	X7	Y7	Z7	X8	Y8	Z8	X9	Y9	Z9	X10	Y10	Z10	X11	Y11	Z11	X12	Y12	Z12	X13	Y13	Z13	X14	Y14	Z14	X15	Y15	Z15	X16	Y16	Z16	X17	Y17	Z17	X18	Y18	Z18	X19	Y19	Z19	

317	3.160							-275.46503	1664.30896	408.94235	-407.32150	1710.93457	353.18222	-254.40282	1515.62207	122.06884	-513.11279	1547.51685	284.99783	-321.70715	1469.50330	293.92230	-410.28735	1564.11462	158.03403	-133.05228	1160.55566	71.44011	-684.41199	1228.59302	368.48874	-67.92268	926.05078	265.02103	-606.53925	966.81995	510.69077	-253.21237	1030.67932	187.96451	-500.65485	1049.16113	415.41147	-482.48810	1056.93604	143.37640	-143.83443	604.70160	322.67780	-533.45245	557.21326	382.43964	-403.53970	186.75700	172.25827	-590.03040	61.37723	254.88341	
318	3.170							-269.08356	1663.50391	417.34039	-401.58536	1710.58362	361.79910	-250.08034	1514.95801	128.38057	-506.00900	1547.16431	295.05447	-314.33673	1468.76331	301.39774	-404.74432	1563.55908	166.71149	-129.81555	1160.12085	72.77242	-677.18774	1228.46826	382.10580	-58.73233	926.02258	264.63272	-595.21228	967.64294	523.55029	-248.02325	1031.05896	195.32140	-494.52945	1048.37830	424.70807	-477.45874	1056.44128	152.68066	-133.45667	608.89685	332.53189	-529.21588	556.77509	387.20090	-377.16989	175.21930	195.35812	-589.61804	61.72895	254.69981	
319	3.180							-262.68555	1662.60132	425.70865	-394.93298	1709.43738	370.19250	-244.85515	1513.50964	136.03525	-499.33221	1546.67285	305.46310	-308.09802	1467.93237	309.52203	-399.62082	1563.06689	176.29359	-127.04341	1159.41406	74.61684	-669.26886	1227.89612	395.46844	-48.66788	926.00580	264.29227	-584.02783	968.94440	535.54919	-241.99080	1032.67651	204.44717	-487.54501	1046.47888	433.78528	-472.08011	1055.62537	161.30489	-124.17171	611.94012	342.91589	-525.24402	555.32526	391.92538	-350.75473	163.19658	219.94412	-589.19806	62.39364	254.93709	
320	3.190							-256.81705	1661.96118	434.47586	-388.86472	1708.35693	378.79697	-240.35402	1512.39514	143.17674	-492.20544	1545.66785	315.45651	-300.35275	1466.34790	317.01559	-393.53470	1562.29187	184.69170	-123.81395	1158.46021	76.69292	-662.05609	1228.48401	408.43256	-39.47083	924.88263	262.74374	-572.92084	969.44708	548.31830	-236.59268	1031.88538	212.14984	-481.86041	1044.37183	442.76935	-466.48297	1054.54712	170.48453	-115.09991	614.61621	351.72736	-520.73596	554.03729	395.94244	-322.48175	150.98750	244.07317	-588.85889	62.69078	255.07990	
321	3.200							-248.75436	1660.46729	442.27298	-381.87589	1707.19263	387.01974	-235.70737	1511.16919	150.06995	-485.25037	1545.33923	325.50043	-293.66650	1465.44275	324.88715	-387.86053	1561.35193	193.71391	-120.11018	1157.40161	79.37267	-654.15118	1227.78040	421.78955	-30.33872	923.49695	262.75299	-562.37415	970.04761	560.55225	-230.40703	1031.51099	221.88167	-475.15018	1042.61572	451.73807	-460.50391	1054.05237	178.92354	-106.69144	616.71667	360.87350	-516.35229	553.22382	400.62201	-293.79633	139.62886	268.24536	-588.71997	63.04507	255.07487	
322	3.210							-242.43971	1659.39001	450.92340	-375.76895	1705.95105	395.62357	-230.29355	1509.97766	157.78503	-478.20932	1544.34583	335.57312	-286.98004	1464.25146	333.05386	-381.82620	1560.38501	202.62570	-117.05316	1156.73865	81.74762	-646.15198	1227.58081	434.41901	-21.28694	922.31543	262.01276	-550.81622	969.83777	573.09882	-224.26915	1030.87964	229.56409	-467.80051	1041.92676	461.40329	-454.48175	1052.99194	188.22047	-98.70214	617.53845	369.26364	-512.64075	551.77966	404.87891	-263.90497	129.31918	292.55289	-588.47278	63.25718	255.16406	
323	3.220							-235.59135	1657.70447	459.32538	-368.90063	1704.65796	404.00021	-224.86842	1508.27917	164.05974	-470.80054	1543.21423	344.65308	-279.37628	1462.70764	340.66046	-375.33759	1559.22070	210.95818	-113.32153	1155.01965	84.52757	-636.97943	1226.68250	447.10791	-12.27533	920.30219	261.41971	-539.75726	970.52203	585.92346	-217.34305	1029.99377	239.16647	-459.29486	1040.29639	471.14999	-447.84158	1052.12073	196.56886	-92.15749	617.10858	377.29453	-508.38632	550.47644	408.66019	-233.61659	118.91512	316.10403	-587.89886	63.70083	255.09668	
